<?xml version="1.0" encoding="iso-8859-1"?>
<!-- Generator: Adobe Illustrator 19.0.0, SVG Export Plug-In . SVG Version: 6.00 Build 0)  -->
<svg version="1.1" id="Capa_1" xmlns="http://www.w3.org/2000/svg" xmlns:xlink="http://www.w3.org/1999/xlink" x="0px" y="0px"
	 viewBox="0 0 60 60" style="enable-background:new 0 0 60 60;" xml:space="preserve">
<g>
	<g>
		<path d="M43.5,3.2L42.6,5C51.9,9.6,58,19.5,58,30c0,7.6-3.1,14.5-8,19.5V30c0-11-9-20-20-20s-20,9-20,20v19.5
			c-4.9-5.1-8-12-8-19.5C2,19.5,8.1,9.6,17.4,5l-0.8-1.8C6.5,8.2,0,18.7,0,30c0,16.5,13.5,30,30,30s30-13.5,30-30
			C60,18.7,53.5,8.2,43.5,3.2z M12,51.4V30c0-9.9,8.1-18,18-18s18,8.1,18,18v21.4C43.1,55.5,36.8,58,30,58S16.9,55.5,12,51.4z"/>
		<path d="M40,30h-7V14h-2v16h-2V14h-2v16h-7c-0.6,0-1,0.4-1,1v4v10c0,0.3,0.1,0.6,0.4,0.8l10,8c0.2,0.1,0.4,0.2,0.6,0.2
			s0.4-0.1,0.6-0.2l10-8c0.3-0.2,0.4-0.5,0.4-0.8V35v-4C41,30.4,40.6,30,40,30z M21,32h18v2H21V32z M39,44.5l-8,6.4V42h2v-2h-6v2h2
			v8.9l-8-6.4V36h18V44.5z"/>
		<path d="M24,6h3v2h2V6h2v2h2V6h3c0.6,0,1-0.4,1-1V1c0-0.6-0.4-1-1-1H24c-0.6,0-1,0.4-1,1v4C23,5.6,23.4,6,24,6z M25,2h10v2H25V2z"
			/>
		<rect x="35" y="26" width="2" height="2"/>
		<rect x="39" y="26" width="2" height="2"/>
		<rect x="35" y="22" width="2" height="2"/>
		<rect x="39" y="22" width="2" height="2"/>
		<rect x="19" y="22" width="2" height="2"/>
		<rect x="23" y="22" width="2" height="2"/>
		<rect x="43" y="26" width="2" height="2"/>
		<rect x="15" y="26" width="2" height="2"/>
		<rect x="19" y="26" width="2" height="2"/>
		<rect x="23" y="26" width="2" height="2"/>
		<rect x="35" y="18" width="2" height="2"/>
		<rect x="23" y="18" width="2" height="2"/>
	</g>
</g>
<g>
</g>
<g>
</g>
<g>
</g>
<g>
</g>
<g>
</g>
<g>
</g>
<g>
</g>
<g>
</g>
<g>
</g>
<g>
</g>
<g>
</g>
<g>
</g>
<g>
</g>
<g>
</g>
<g>
</g>
</svg>
