<?xml version="1.0" encoding="iso-8859-1"?>
<!-- Generator: Adobe Illustrator 16.0.0, SVG Export Plug-In . SVG Version: 6.00 Build 0)  -->
<!DOCTYPE svg PUBLIC "-//W3C//DTD SVG 1.1//EN" "http://www.w3.org/Graphics/SVG/1.1/DTD/svg11.dtd">
<svg version="1.1" id="Capa_1" xmlns="http://www.w3.org/2000/svg" xmlns:xlink="http://www.w3.org/1999/xlink" x="0px" y="0px"
	 width="474.132px" height="474.132px" viewBox="0 0 474.132 474.132" style="enable-background:new 0 0 474.132 474.132;"
	 xml:space="preserve">
<g>
	<path d="M62.724,62.75c0-34.66,28.098-62.75,62.75-62.75s62.75,28.098,62.75,62.75c0,34.66-28.098,62.75-62.75,62.75
		S62.724,97.41,62.724,62.75z M127.453,446.244c0,16.305-13.98,29.334-30.62,27.758c-14.504-1.375-25.16-14.383-25.16-28.949
		V299.818c0,11.936-12.328,21.502-24.412,21.502c-13.348,0-24.392-11.314-24.392-22.65v-54.631v-48.811
		c0-26.955,21.855-48.81,48.811-48.81h112.798c26.955,0,48.81,21.855,48.81,48.81v48.811v54.631c0,11.336-11.05,22.65-24.391,22.65
		c-12.083,0-24.412-9.566-24.412-21.502v145.234c0,14.566-10.656,27.574-25.16,28.949c-16.639,1.576-30.62-11.453-30.62-27.758
		H127.453z M391.939,256.529c4.216,11.859,15.422,20.4,28.723,20.4c16.898,0,30.601-13.701,30.601-30.6
		c0-16.898-13.702-30.6-30.601-30.6c-13.301,0-24.514,8.541-28.723,20.4h-56.277V59.33h54.4c0.619,0,1.224-0.075,1.815-0.184
		c4.169,11.955,15.416,20.583,28.784,20.583c16.898,0,30.601-13.702,30.601-30.6c0-16.898-13.702-30.6-30.601-30.6
		c-13.368,0-24.615,8.629-28.784,20.583c-0.592-0.109-1.196-0.184-1.815-0.184h-64.6c-5.631,0-10.2,4.569-10.2,10.2v187h-54.4
		c-5.63,0-10.2,4.569-10.2,10.2s4.57,10.199,10.2,10.199h54.4v187c0,5.631,4.569,10.201,10.2,10.201h64.6
		c0.619,0,1.224-0.074,1.815-0.184c4.169,11.955,15.416,20.584,28.784,20.584c16.898,0,30.601-13.703,30.601-30.602
		c0-16.896-13.702-30.6-30.601-30.6c-13.368,0-24.615,8.629-28.784,20.584c-0.592-0.109-1.196-0.184-1.815-0.184h-54.4V256.529
		H391.939z"/>
</g>
<g>
</g>
<g>
</g>
<g>
</g>
<g>
</g>
<g>
</g>
<g>
</g>
<g>
</g>
<g>
</g>
<g>
</g>
<g>
</g>
<g>
</g>
<g>
</g>
<g>
</g>
<g>
</g>
<g>
</g>
</svg>
